PathFileType	4	(X/Y/Z)	C:\Users\WrightLab\Desktop\Jo\P5V28.trc
DataRate	CameraRate	NumFrames	NumMarkers	Units	OrigDataRate	OrigDataStartFrame	OrigNumFrames
100.00	100.00	       31	19	mm	100.00	1	       918
Frame#	Time	Headset_Front			Headset_Back			Headset_Left			Headset_Right			Left_Shoulder			Right_Shoulder			Sternum			C7			Left Elbow			Right Elbow			Left Wrist			Right Wrist			Left ASIS			Right ASIS			S2			Left Knee			Right Knee			Left Ankle			Right Ankle			
		X1	Y1	Z1	X2	Y2	Z2	X3	Y3	Z3	X4	Y4	Z4	X5	Y5	Z5	X6	Y6	Z6	X7	Y7	Z7	X8	Y8	Z8	X9	Y9	Z9	X10	Y10	Z10	X11	Y11	Z11	X12	Y12	Z12	X13	Y13	Z13	X14	Y14	Z14	X15	Y15	Z15	X16	Y16	Z16	X17	Y17	Z17	X18	Y18	Z18	X19	Y19	Z19	

1	0.000																												-467.82791	1176.77759	-1390.62341				-364.99597	1055.15820	-1207.87195										-16.45073	468.16391	-1347.94666	-380.59641	473.92548	-1352.62671							
2	0.010																												-468.13544	1176.75525	-1390.92761				-365.63321	1054.99976	-1207.81067										-17.06179	469.10138	-1345.87634	-380.58701	473.91696	-1352.62476							
3	0.020																												-468.45676	1176.73376	-1391.22607				-366.45193	1054.74146	-1207.74854										-17.07659	469.07318	-1345.96716	-380.58530	473.91916	-1352.62488							
4	0.030																												-468.76147	1176.70667	-1391.48694				-366.79745	1054.61389	-1207.94324										-17.11119	469.02451	-1346.18103	-380.57874	473.90405	-1352.62256							
5	0.040																												-469.29712	1176.54456	-1391.32495				-367.11349	1054.51331	-1208.01013										-17.12422	469.00156	-1346.26123	-380.58850	473.89938	-1352.23083							
6	0.050																												-469.86389	1176.63513	-1391.52698				-367.42386	1054.47107	-1208.26965										-17.15656	468.94714	-1346.46021	-380.74902	473.92123	-1351.35913							
7	0.060																												-470.13562	1176.56506	-1391.68958				-367.97156	1054.52039	-1208.27588										-17.16493	468.95520	-1346.51416	-380.74362	473.90427	-1351.35669							
8	0.070																												-470.53943	1176.06909	-1390.74890				-368.19278	1054.49451	-1208.31250										-17.11221	469.49091	-1347.09644	-380.93604	473.49646	-1351.07227							
9	0.080																												-470.81039	1176.00012	-1390.91248				-368.40570	1054.49634	-1208.34473										-16.67984	469.63458	-1348.07861	-380.81406	472.97934	-1350.77075							
10	0.090																												-471.83994	1173.71509	-1396.68262				-368.59598	1054.43066	-1208.37671										-16.25623	469.68045	-1349.84375	-380.85693	472.97681	-1350.77515							
11	0.100																												-471.57831	1175.56628	-1390.39722				-368.77045	1053.99121	-1208.05164										-16.21469	469.79449	-1349.59253	-381.11478	472.48071	-1351.75378							
12	0.110																												-472.07156	1175.93494	-1391.13184				-369.00281	1053.80176	-1208.08569										-15.53347	469.50516	-1351.35608	-381.81067	471.68729	-1351.78748							
13	0.120																												-472.33337	1175.92627	-1391.17578				-369.16513	1053.76746	-1208.10767										-15.22329	469.82602	-1352.15247	-381.97391	471.49753	-1351.79309							
14	0.130																												-472.61774	1175.94800	-1391.30273				-369.77301	1053.28564	-1208.00342										-14.75405	469.14240	-1353.11108	-382.56610	471.92871	-1351.71240							
15	0.140																												-473.19724	1175.91589	-1390.87927				-370.38571	1053.35779	-1208.00745										-14.71874	469.24008	-1352.89722	-382.70300	471.71469	-1351.86621							
16	0.150																												-473.50034	1175.94495	-1390.91040				-370.64090	1053.25891	-1208.26575										-14.69428	469.31750	-1352.75012	-382.70300	471.71469	-1351.86621							
17	0.160																												-474.10269	1173.44116	-1396.91504				-370.86255	1053.09314	-1208.30139										-14.49068	469.71368	-1353.65869	-382.83401	471.56592	-1351.78540							
18	0.170																												-474.11304	1175.53638	-1389.88269				-370.98172	1052.94629	-1208.24182										-14.51581	469.68277	-1353.81555	-383.48657	471.91925	-1351.65308							
19	0.180																												-474.70807	1175.84277	-1390.20447				-371.04623	1052.88928	-1208.25793										-14.97851	470.54425	-1352.69067	-384.34045	472.04504	-1351.06824							
20	0.190																												-475.28888	1175.68652	-1389.40833				-371.36786	1053.11902	-1208.35925										-15.03379	470.47202	-1353.03491	-384.37341	472.04379	-1351.07166							
21	0.200																												-475.81238	1175.51624	-1388.56470				-371.18735	1052.83984	-1208.27283										-15.10112	470.32089	-1353.44666	-384.93137	472.15125	-1350.92896							
22	0.210																												-476.13925	1175.59033	-1388.70105				-371.53278	1052.96069	-1208.16064										-15.16822	470.22025	-1353.86279	-385.01105	472.18607	-1350.94141							
23	0.220																												-477.79877	1173.98486	-1394.11023				-371.54398	1052.59021	-1207.84583										-15.22370	470.12732	-1354.20581	-385.21191	471.95862	-1350.84680							
24	0.230																												-478.08124	1173.65222	-1395.31299				-371.62711	1052.55396	-1207.84888										-15.25612	470.08005	-1354.40698	-385.57816	471.50232	-1351.65430							
25	0.240																												-478.31064	1173.37952	-1396.28918				-371.68372	1052.51624	-1207.81812										-15.31381	469.97198	-1354.76233	-386.16437	471.25668	-1351.96484							
26	0.250																												-477.60864	1175.63257	-1388.30042				-371.70728	1052.56177	-1207.57739										-15.33199	469.95755	-1354.87659	-387.08170	471.63715	-1352.19763							
27	0.260																												-477.84967	1175.63672	-1388.27942				-371.78766	1052.52795	-1207.56628										-15.34102	469.97470	-1354.93628	-387.34210	471.73279	-1352.23584							
28	0.270																												-478.05487	1175.62634	-1388.12952				-371.85428	1052.41809	-1207.25220										-15.37441	469.93719	-1355.14478	-388.02307	471.52441	-1352.27734							
29	0.280																												-478.20059	1175.62671	-1387.91772				-371.94229	1052.14783	-1206.65955										-15.42564	469.88651	-1355.46558	-388.05173	470.78784	-1352.01050							
30	0.290																												-478.89362	1172.35962	-1398.71741				-371.61646	1051.63745	-1206.36060										-15.47864	469.79645	-1355.79297	-388.71411	471.35660	-1351.81079							
31	0.300																												-478.92471	1172.23938	-1398.83594				-371.68951	1051.46350	-1206.30835										-15.87797	470.74545	-1355.03223	-388.80658	471.03110	-1351.43640							
